<?xml version="1.0" ?>
<!-- Uploaded to: SVG Repo, www.svgrepo.com, Generator: SVG Repo Mixer Tools -->
<svg width="800px" height="800px" viewBox="0 0 512 512" id="Layer_1" version="1.1" xml:space="preserve" xmlns="http://www.w3.org/2000/svg" xmlns:xlink="http://www.w3.org/1999/xlink">
<style type="text/css">
	.st0{fill:#69C9C9;}
	.st1{fill:#4D5152;}
</style>
<polygon class="st0" points="86.6,266 86.6,246 96.6,246 96.6,106.6 355.4,256 96.6,405.4 96.6,266 "/>
<g>
<polygon class="st1" points="76.6,266 76.6,440 395.4,256 76.6,72 76.6,246 96.6,246 96.6,106.6 355.4,256 96.6,405.4 96.6,266     "/>
<rect class="st1" height="20" width="20" x="36.6" y="246"/>
<polygon class="st1" points="36.6,2.7 36.6,226 56.6,226 56.6,37.3 435.4,256 56.6,474.7 56.6,286 36.6,286 36.6,509.3 475.4,256     "/>
</g>
</svg>